<svg xmlns="http://www.w3.org/2000/svg" width="99.775" height="102.988" viewBox="0 0 26.399 27.249" xmlns:v="https://vecta.io/nano"><g stroke="#000" stroke-width=".45"><path d="M.537 18.002c-.159.197-.242.448-.264.7s.013.506.073.752c.119.492.332.964.378 1.467.056.614-.14 1.232-.068 1.843.049.412.22.806.472 1.135s.582.596.947.792c.669.359 1.435.48 2.184.609l2.206.423 3.968.714c1.888.165 3.795-.075 5.682.097l2.786.387c.93.117 1.882.164 2.8-.026 1.081-.224 2.083-.776 2.898-1.521.306-.28.595-.599.734-.99.069-.196.099-.407.071-.613a.99.99 0 0 0-.262-.553c-.179-.184-.438-.282-.695-.29-.284-.009-.56.084-.833.163-2.644.763-5.471.253-8.162-.324-4.034-.865-8.035-1.872-12.058-2.784-.119-.027-.239-.054-.354-.095-.3-.107-.559-.306-.784-.531s-.423-.476-.636-.712A4.68 4.68 0 0 0 .925 18c-.092-.068-.188-.131-.273-.208s-.16-.168-.199-.275a.44.44 0 0 1-.027-.168c.002-.057.018-.114.047-.163s.072-.091.123-.116.111-.033.167-.019c.073.018.136.071.17.139s.043.146.031.22c-.02.122-.092.229-.174.322s-.176.174-.253.271z" fill="#c56523"/><path d="M1.361 16.331c-.173-.085-.344-.183-.533-.218-.095-.017-.194-.018-.286.009s-.179.08-.235.158a.43.43 0 0 0-.074.182c-.011.065-.009.132.002.197.021.13.074.253.125.375.247.597.434 1.221.521 1.861.065.474.077.961.24 1.411.189.519.571.954 1.023 1.272s.97.53 1.497.696c2.215.696 4.602.619 6.858 1.168l1.851.443c1.313.203 2.667-.039 3.977.181.632.106 1.242.319 1.871.441 1.071.209 2.174.155 3.264.201.592.025 1.195.078 1.77-.066.439-.11.848-.336 1.179-.645s.582-.702.728-1.131c.199-.582.204-1.212.167-1.826s-.112-1.229-.066-1.843c.012-.152.03-.306.002-.455-.014-.075-.041-.148-.084-.211a.39.39 0 0 0-.173-.145c-.065-.027-.138-.032-.208-.023s-.137.033-.201.063c-.127.06-.242.146-.37.204-.206.093-.441.109-.666.085s-.444-.086-.663-.144c-3.305-.875-6.769-.888-10.188-.901s-6.885-.038-10.184-.937c-.39-.106-.779-.225-1.142-.403z" fill="#d5e4e4"/><path d="M.942 14.411a1.34 1.34 0 0 0-.282.059c-.09.033-.176.086-.232.164a.42.42 0 0 0-.074.199.58.58 0 0 0 .019.213c.037.138.115.262.194.382.735 1.126 1.616 2.176 2.716 2.95 1.108.78 2.407 1.257 3.735 1.526s2.688.334 4.042.345l3.896.039c2.015.107 4.02.475 6.037.4.78-.029 1.565-.126 2.301-.388s1.423-.698 1.898-1.317a1.31 1.31 0 0 0 .167-.267c.097-.222.091-.474.152-.708.041-.155.111-.303.133-.463.011-.08.008-.162-.016-.238s-.073-.147-.141-.189c-.046-.029-.1-.045-.154-.049a.48.48 0 0 0-.161.017c-.105.029-.2.084-.295.137-.757.424-1.587.707-2.437.879-1.698.342-3.462.237-5.161-.097s-3.345-.894-4.981-1.464c-3.672-1.279-7.499-2.64-11.354-2.131z" fill="#f0461c" fill-opacity=".992"/><path d="M25.905 15.957a2.32 2.32 0 0 1-.345 1.416c-.289.46-.732.804-1.202 1.078-1.139.665-2.471.963-3.79.966-.78.002-1.556-.097-2.33-.192l-3.408-.376c-1.908-.171-3.841-.256-5.681-.787a14.65 14.65 0 0 1-2.484-.988c-1.387-.693-2.712-1.569-4.222-1.919-.305-.071-.617-.12-.91-.23s-.572-.293-.727-.566c-.138-.243-.163-.534-.15-.814l.059-.836c0-.028-.001-.056.004-.083a.25.25 0 0 1 .085-.145c.043-.037.097-.061.153-.074.111-.025.227-.005.34.015 8.162 1.445 16.372 2.624 24.611 3.535z" fill="#c56523"/><path d="M.676 9.594l-.037.186a14.96 14.96 0 0 0-.291 2.883c-.001.255.006.517.101.753.048.118.117.229.211.315s.212.148.338.165c.144.02.292-.019.422-.085s.243-.159.353-.254l.34-.274c.121-.08.258-.142.403-.156a.71.71 0 0 1 .36.066c.112.052.21.13.291.223.161.186.249.427.291.669.107.608-.047 1.228-.094 1.844-.024.308-.02.621.055.921s.226.586.46.787a1.17 1.17 0 0 0 .805.28c.291-.014.575-.148.764-.369a1.29 1.29 0 0 0 .249-.48c.051-.174.074-.355.087-.536.025-.362.011-.731.106-1.082.066-.244.188-.478.374-.649s.44-.276.692-.254.483.168.649.361.271.429.351.67c.067.2.118.407.207.598s.223.371.411.466a.74.74 0 0 0 .386.073c.132-.01.261-.052.377-.116.232-.129.406-.343.534-.575l.206-.384c.077-.123.174-.238.303-.306.14-.073.308-.085.46-.045s.289.131.397.245c.216.23.314.546.376.855l.196 1.178c.085.389.228.777.495 1.073.288.32.714.512 1.145.511a1.51 1.51 0 0 0 1.136-.527c.172-.204.285-.451.379-.701l.281-.75c.193-.426.499-.812.913-1.029.207-.109.439-.173.672-.176a1.25 1.25 0 0 1 .668.18c.274.169.463.444.635.716l.536.794c.204.246.458.461.759.567a1.48 1.48 0 0 0 .773.047c.256-.05.499-.159.717-.301.175-.114.336-.249.506-.37s.356-.228.56-.274c.285-.065.584-.009.868.06s.572.151.865.133c.369-.022.715-.201.996-.441s.506-.538.724-.836c.264-.361.527-.736.651-1.166a2.01 2.01 0 0 0 .077-.586c-.002-.132-.017-.264-.045-.394z" fill="#d6e6e6"/><path d="M15.593 4.467C14.914 2.092 12.03 2.8 11.42 2.903S4.032 6.569 2.54 7.576.494 8.973.936 9.553s15.386 4.316 17.009 4.87 2.006 1.051 3.767 1.282 3.848-.036 4.162-.669.504-.682-.07-2.06-10.211-8.509-10.211-8.509z" fill="#fcbe95"/><path d="M13.039 6.455c.121.057.229.139.345.205s.247.119.38.108a.51.51 0 0 0 .291-.128c.081-.07.143-.161.19-.258.093-.194.127-.411.193-.615a2.15 2.15 0 0 1 1.143-1.273c.534-.244 1.162-.265 1.717-.074s1.032.59 1.337 1.092a2.84 2.84 0 0 1 .39 1.688c-.066.82-.477 1.592-1.067 2.165s-1.348.955-2.141 1.171a5.03 5.03 0 0 1-1.587.185c-.534-.029-1.066-.162-1.536-.416s-.878-.633-1.14-1.1-.372-1.022-.279-1.549c.072-.406.271-.799.6-1.048.164-.124.358-.211.562-.24s.417-.002.603.086z" fill="#ff2900"/><path d="M14.108 8.057c1.225-.286 1.359-1.283 1.359-1.283s.302-.764-.008.009-.357.712-.357.712-1.943-2.105-2.324-3.932.304-3.476.304-3.476h0" fill="none"/></g><path d="M1.851 17.773c-.151 0-.273.122-.273.273s.122.273.273.273c.073 0 .142-.029.193-.08s.08-.121.08-.193c0-.151-.123-.273-.273-.273zm.986 2.289c-.151 0-.273.122-.273.273 0 .073.029.142.08.193s.121.08.193.08c.151 0 .273-.123.273-.273s-.122-.273-.273-.273zm2.443.156c-.151 0-.273.122-.273.273s.122.273.273.273c.073 0 .142-.029.193-.08s.08-.121.08-.193c0-.151-.123-.273-.273-.273zm2.654.417c-.151 0-.273.123-.273.273s.122.273.273.273.273-.122.273-.273c0-.073-.029-.142-.08-.193s-.121-.08-.193-.08zm15.921.06c-.151 0-.273.122-.273.273 0 .073.029.142.08.193s.121.08.193.08c.151 0 .273-.123.273-.273s-.122-.273-.273-.273zm-13.298.268c-.151 0-.273.123-.273.273s.122.273.273.273.273-.122.273-.273c0-.073-.029-.142-.08-.193s-.121-.08-.193-.08zm5.367 0c-.073 0-.142.029-.193.08s-.08.121-.08.193c0 .151.123.273.273.273s.273-.122.273-.273-.122-.273-.273-.273zm4.055.119c-.151 0-.273.122-.273.273s.122.273.273.273c.073 0 .142-.029.193-.08s.08-.121.08-.193c0-.151-.123-.273-.273-.273zm-6.768.238c-.151 0-.273.123-.273.273s.122.273.273.273.273-.122.273-.273c0-.073-.029-.142-.08-.193s-.121-.08-.193-.08zm9.839.09c-.151 0-.273.122-.273.273 0 .073.029.142.08.193s.121.08.193.08c.151 0 .273-.123.273-.273s-.122-.273-.273-.273zm-17.322.149c-.073 0-.142.029-.193.08s-.08.121-.08.193c0 .151.123.273.273.273S6 21.984 6 21.833s-.122-.273-.273-.273zm12.075.059c-.151 0-.273.123-.273.273s.122.273.273.273.273-.122.273-.273c0-.073-.029-.142-.08-.193s-.121-.08-.193-.08zm-8.318.06c-.151 0-.273.122-.273.273s.122.273.273.273c.073 0 .142-.029.193-.08s.08-.121.08-.193c0-.151-.123-.273-.273-.273zm14.938.388c-.151 0-.273.122-.273.273 0 .073.029.142.08.193s.121.08.193.08c.151 0 .273-.123.273-.273s-.122-.273-.273-.273zm-5.337.089c-.151 0-.273.122-.273.273s.122.273.273.273c.073 0 .142-.029.193-.08s.08-.121.08-.193c0-.151-.123-.273-.273-.273zm2.714.089c-.073 0-.142.029-.193.08s-.08.121-.08.193c0 .151.123.273.273.273s.273-.122.273-.273-.122-.273-.273-.273zm-10.346.447c-.151 0-.273.123-.273.273s.122.273.273.273.273-.122.273-.273c0-.073-.029-.142-.08-.193s-.121-.08-.193-.08zm-1.163.03c-.151 0-.273.123-.273.273s.122.273.273.273.273-.122.273-.273c0-.073-.029-.142-.08-.193s-.121-.08-.193-.08zm2.624.448c-.151 0-.273.122-.273.273s.122.273.273.273c.073 0 .142-.029.193-.08s.08-.121.08-.193c0-.151-.123-.273-.273-.273zm1.7.298c-.151 0-.273.122-.273.273 0 .073.029.142.08.193s.121.08.193.08c.151 0 .273-.123.273-.273s-.122-.273-.273-.273zm3.131 0c-.151 0-.273.122-.273.273 0 .073.029.142.08.193s.121.08.193.08.142-.029.193-.08.08-.121.08-.193c0-.151-.123-.273-.273-.273zm1.491.029c-.073 0-.142.029-.193.08s-.08.121-.08.193c0 .151.123.273.273.273s.273-.122.273-.273-.122-.273-.273-.273zm4.591.209c-.073 0-.142.029-.193.08s-.08.121-.08.193c0 .151.123.273.273.273s.273-.122.273-.273-.122-.273-.273-.273zm-2.057.149c-.151 0-.273.122-.273.273 0 .073.029.142.08.193s.121.08.193.08c.151 0 .273-.123.273-.273s-.122-.273-.273-.273z" fill-opacity=".999"/></svg>